<?xml version="1.0" standalone="no"?><!DOCTYPE svg PUBLIC "-//W3C//DTD SVG 1.1//EN" "http://www.w3.org/Graphics/SVG/1.1/DTD/svg11.dtd"><svg t="1767518055445" class="icon" viewBox="0 0 1024 1024" version="1.1" xmlns="http://www.w3.org/2000/svg" p-id="9237" xmlns:xlink="http://www.w3.org/1999/xlink" width="200" height="200"><path d="M1024 256V0H768v85.33H256V0H0v256h85.33v512H0v256h256v-85.33h512V1024h256V768h-85.33V256H1024zM853.33 85.33h85.33v85.33h-85.33V85.33zM170.67 487.01l316.34-316.34h92.65L170.67 579.66v-92.65zM85.33 85.33h85.33v85.33H85.33V85.33zM256 256v-85.33h110.32L170.67 366.32V256H256z m-85.33 444.34l529.68-529.68H768v24.99L195.66 768h-24.99v-67.66z m0 238.33H85.33v-85.33h85.33v85.33z m682.66-401.68L536.99 853.33h-92.65l408.99-408.99v92.65z m85.34 401.68h-85.33v-85.33h85.33v85.33zM768 768v85.33H657.68l195.66-195.66V768H768z m85.33-444.34L323.66 853.33H256v-24.99L828.34 256h24.99v67.66z" fill="#ffffff" p-id="9238"></path></svg>