<?xml version="1.0" standalone="no"?><!DOCTYPE svg PUBLIC "-//W3C//DTD SVG 1.1//EN" "http://www.w3.org/Graphics/SVG/1.1/DTD/svg11.dtd"><svg t="1764314633317" class="icon" viewBox="0 0 1024 1024" version="1.1" xmlns="http://www.w3.org/2000/svg" p-id="9283" xmlns:xlink="http://www.w3.org/1999/xlink" width="200" height="200"><path d="M512 128c116.48 0 222.528 38.08 302.208 100.48L498.304 544.512a32 32 0 0 0-8.768 16.32l-9.408 47.104 47.104-9.408a32.064 32.064 0 0 0 16.32-8.768l317.952-317.952c61.632 65.792 98.56 149.312 98.56 240.256 0 125.376-47.872 133.952-104.96 134.464h-12.8c-16.192 0-32.832 0-49.152 2.304a132.864 132.864 0 0 0-29.248 7.296 104.448 104.448 0 0 0-27.904 15.936c-27.648 22.208-32.384 55.744-37.312 90.176l-1.792 12.288C687.552 835.84 669.248 896 512 896c-247.424 0-448-171.904-448-384s200.576-384 448-384zM272 544a48 48 0 1 0 0 96 48 48 0 0 0 0-96zM320 368a48 48 0 1 0 0 96 48 48 0 0 0 0-96zM496 288a47.808 47.808 0 0 0-48 48 48 48 0 1 0 48-48z m436.672-155.328l22.656 22.656a16 16 0 0 1 0 22.592L861.44 271.744a418.56 418.56 0 0 0-47.296-43.2l95.872-95.872a16 16 0 0 1 22.592 0z" p-id="9284"></path></svg>