<?xml version="1.0" standalone="no"?><!DOCTYPE svg PUBLIC "-//W3C//DTD SVG 1.1//EN" "http://www.w3.org/Graphics/SVG/1.1/DTD/svg11.dtd"><svg t="1763531427822" class="icon" viewBox="0 0 1024 1024" version="1.1" xmlns="http://www.w3.org/2000/svg" p-id="4440" xmlns:xlink="http://www.w3.org/1999/xlink" width="200" height="200"><path d="M783.058824 124.235294a96.617412 96.617412 0 1 1-93.003295 122.970353H308.705882C242.477176 247.205647 176.941176 290.936471 176.941176 361.411765c0 68.367059 61.620706 111.525647 125.741177 114.085647l6.023529 0.12047h386.499765c91.888941 0 184.470588 61.711059 184.470588 166.881883 0 102.791529-88.395294 164.080941-178.206117 166.821647l-6.264471 0.090353H313.856A96.677647 96.677647 0 0 1 124.235294 783.058824a96.617412 96.617412 0 0 1 189.620706-26.383059l381.349647 0.030117c66.258824 0 131.764706-43.670588 131.764706-114.206117 0-68.367059-61.620706-111.525647-125.741177-114.05553l-6.023529-0.12047H308.705882c-91.888941 0-184.470588-61.741176-184.470588-166.912 0-102.791529 88.425412-164.080941 178.206118-166.79153l6.26447-0.12047h381.349647A96.677647 96.677647 0 0 1 783.058824 124.235294z" fill="#2c2c2c" p-id="4441"></path></svg>