<?xml version="1.0" standalone="no"?><!DOCTYPE svg PUBLIC "-//W3C//DTD SVG 1.1//EN" "http://www.w3.org/Graphics/SVG/1.1/DTD/svg11.dtd"><svg t="1765034815061" class="icon" viewBox="0 0 1024 1024" version="1.1" xmlns="http://www.w3.org/2000/svg" p-id="5204" xmlns:xlink="http://www.w3.org/1999/xlink" width="200" height="200"><path d="M513.27488 972.8a460.8 460.8 0 0 1 0-921.6c252.73344 0 456.96512 204.8 456.96512 462.08 0 253.44-204.23168 459.52-456.96512 459.52zM821.76 445.44h100.1984c-29.53216-178.4576-172.12928-314.30144-348.672-343.04h-7.5264v102.4a51.2 51.2 0 0 1-102.4 0V102.4h-6.144c-177.90976 28.73856-323.14368 164.60288-351.40096 343.04H207.36a51.2 51.2 0 0 1 0 102.4H104.90368v15.96416C126.976 747.52 270.6944 893.952 457.216 921.6h6.144v-102.4a51.2 51.2 0 0 1 102.4 0v102.4h7.51616c182.37952-27.648 327.45984-174.08 350.94528-356.41344 0-4.63872-0.04608-10.58304-0.12288-17.34144H821.76a51.2 51.2 0 0 1 0-102.40512z m-307.2 168.96a102.4 102.4 0 1 1 102.4-102.4 102.4 102.4 0 0 1-102.4 102.4z" p-id="5205"></path></svg>