<?xml version="1.0" standalone="no"?><!DOCTYPE svg PUBLIC "-//W3C//DTD SVG 1.1//EN" "http://www.w3.org/Graphics/SVG/1.1/DTD/svg11.dtd"><svg t="1764320233283" class="icon" viewBox="0 0 1024 1024" version="1.1" xmlns="http://www.w3.org/2000/svg" p-id="6611" xmlns:xlink="http://www.w3.org/1999/xlink" width="200" height="200"><path d="M494.7456 355.4816A67.328 67.328 0 1 0 390.1952 440.32l483.2768 558.7456a67.3792 67.3792 0 0 0 104.448-84.992L494.7968 355.4816z m-63.8464 28.16a18.3296 18.3296 0 0 1 25.6 2.7648l39.936 48.9984c-5.632 2.4064-11.008 5.376-15.872 9.3184-4.9664 3.9936-8.9088 8.704-12.3904 13.6192l-39.8848-48.896a18.432 18.432 0 0 1 2.56-25.7536z" fill="#2c2c2c" p-id="6612"></path><path d="M407.552 705.536a30.72 30.72 0 0 1-26.7264-15.6672L274.5344 501.1456l-215.6032-19.456a30.72 30.72 0 0 1-19.8656-51.456l146.5856-159.232-48.128-211.2a30.72 30.72 0 0 1 42.8032-34.816l196.864 90.2656L563.2 4.352a30.7712 30.7712 0 0 1 46.2848 29.952l-25.0368 214.9888 163.0208 142.6432a30.72 30.72 0 0 1-15.872 53.5552l-75.6736 10.752a30.72 30.72 0 0 1-8.6528-60.928l9.2672-1.28-124.7232-109.1072a30.72 30.72 0 0 1-10.2912-26.6752l19.712-169.216L394.752 176.2816a30.8736 30.8736 0 0 1-28.5184 1.536L211.3536 106.9056l37.8368 166.2464a30.72 30.72 0 0 1-7.3728 27.648L126.464 425.984l169.6768 15.36a30.8224 30.8224 0 0 1 24.0128 15.5136l83.6096 148.48 8.6528-20.1728a30.72 30.72 0 0 1 56.5248 24.1152l-33.0752 77.5168a30.72 30.72 0 0 1-28.2624 18.688z" fill="#2c2c2c" p-id="6613"></path></svg>