<?xml version="1.0" standalone="no"?><!DOCTYPE svg PUBLIC "-//W3C//DTD SVG 1.1//EN" "http://www.w3.org/Graphics/SVG/1.1/DTD/svg11.dtd"><svg t="1766494490132" class="icon" viewBox="0 0 1024 1024" version="1.1" xmlns="http://www.w3.org/2000/svg" p-id="10759" xmlns:xlink="http://www.w3.org/1999/xlink" width="200" height="200"><path d="M512 78.592l298.688 174.208v230.464c43.904 19.328 82.176 43.456 111.36 72 35.328 34.56 59.264 77.888 59.264 127.36 0 83.84-66.752 148.16-148.48 189.056-84.352 42.176-197.824 67.008-320.832 67.008-123.008 0-236.48-24.832-320.768-67.008C109.44 830.784 42.688 766.464 42.688 682.688c0-49.536 23.936-92.8 59.264-127.36 29.184-28.608 67.456-52.736 111.36-72.064v-230.4L512 78.528zM213.312 578.56a248.896 248.896 0 0 0-51.648 37.76C137.536 639.808 128 662.4 128 682.688c0 34.048 28.736 76.352 101.376 112.64 70.144 35.072 169.984 57.984 282.624 57.984 112.64 0 212.48-22.912 282.624-57.92C867.328 759.04 896 716.608 896 682.688c0-20.288-9.6-42.88-33.664-66.432a248.96 248.96 0 0 0-51.648-37.76v22.016L512 774.72 213.312 600.512v-22.016z m512-27.008v-194.56L554.688 451.776v199.296l170.624-99.584z m-256 99.584V451.776L298.688 356.928v194.56l170.624 99.584zM336.064 280.064L512 377.856l176-97.792L512 177.408 336 280.064z" p-id="10760"></path></svg>