<?xml version="1.0" standalone="no"?><!DOCTYPE svg PUBLIC "-//W3C//DTD SVG 1.1//EN" "http://www.w3.org/Graphics/SVG/1.1/DTD/svg11.dtd"><svg t="1767526206571" class="icon" viewBox="0 0 1024 1024" version="1.1" xmlns="http://www.w3.org/2000/svg" p-id="5920" xmlns:xlink="http://www.w3.org/1999/xlink" width="200" height="200"><path d="M512 64.8C264.9 64.8 64.7 265 64.7 512.1S264.9 959.5 512 959.5s447.3-200.2 447.3-447.3S759.1 64.8 512 64.8z m271.8 719.1c-35.3 35.3-76.4 63.1-122.2 82.4-47.4 20.1-97.7 30.2-149.6 30.2-51.9 0-102.2-10.1-149.6-30.1-45.8-19.4-86.8-47.1-122.2-82.4-35.3-35.3-63.1-76.4-82.4-122.2-20.1-47.4-30.2-97.8-30.2-149.7s10.1-102.2 30.1-149.6c19.4-45.8 47.1-86.8 82.4-122.2 35.3-35.3 76.4-63.1 122.2-82.4 47.4-20.1 97.8-30.2 149.7-30.2 51.9 0 102.2 10.1 149.6 30.1 45.8 19.4 86.8 47.1 122.2 82.4 35.3 35.3 63.1 76.4 82.4 122.2 20.1 47.4 30.2 97.8 30.2 149.7s-10.1 102.2-30.1 149.6c-19.4 45.8-47.1 86.9-82.5 122.2z m-79.6-302.8H319.8c-17.4 0-31.5 14.1-31.5 31.5s14.1 31.5 31.5 31.5h384.4c17.4 0 31.5-14.1 31.5-31.5s-14.1-31.5-31.5-31.5z" p-id="5921" fill="#494852"></path></svg>