<?xml version="1.0" standalone="no"?><!DOCTYPE svg PUBLIC "-//W3C//DTD SVG 1.1//EN" "http://www.w3.org/Graphics/SVG/1.1/DTD/svg11.dtd"><svg t="1766998510983" class="icon" viewBox="0 0 1024 1024" version="1.1" xmlns="http://www.w3.org/2000/svg" p-id="1668" xmlns:xlink="http://www.w3.org/1999/xlink" width="200" height="200"><path d="M943.5 876.5L760.6 693.6c52.3-66.3 83.8-149.7 83.8-240.5 0-214.6-174.6-389.2-389.2-389.2S66.1 238.4 66.1 453s174.6 389.2 389.2 389.2c88.5 0 169.9-30 235.4-80l183.6 183.6c9.6 9.6 22.1 14.4 34.7 14.4 12.5 0 25.1-4.8 34.7-14.4 19-19.2 19-50.2-0.2-69.3zM455.3 744.2c-160.8 0-291.2-130.4-291.2-291.2 0-160.8 130.4-291.2 291.2-291.2 160.8 0 291.2 130.4 291.2 291.2-0.1 160.8-130.4 291.2-291.2 291.2z" fill="#2c2c2c" p-id="1669"></path><path d="M422.6 556.6c-39.1 0-70.9-31.8-70.9-70.9 0-27.1-21.9-49-49-49s-49 21.9-49 49c0 93.2 75.8 168.9 168.9 168.9 27.1 0 49-21.9 49-49 0-27-21.9-49-49-49z" fill="#2c2c2c" p-id="1670"></path></svg>