<?xml version="1.0" standalone="no"?><!DOCTYPE svg PUBLIC "-//W3C//DTD SVG 1.1//EN" "http://www.w3.org/Graphics/SVG/1.1/DTD/svg11.dtd"><svg t="1766999773495" class="icon" viewBox="0 0 1024 1024" version="1.1" xmlns="http://www.w3.org/2000/svg" p-id="5934" xmlns:xlink="http://www.w3.org/1999/xlink" width="200" height="200"><path d="M474.666667 106.666667a368 368 0 1 0 368 368 368 368 0 0 0-368-368z m0 661.333333a293.333333 293.333333 0 1 1 293.333333-293.333333 293.653333 293.653333 0 0 1-293.333333 293.333333z" p-id="5935" fill="#ffffff"></path><path d="M736.741464 789.544104m3.771236-3.771236l45.254834-45.254834q3.771236-3.771236 7.542473 0l122.452038 122.452038q3.771236 3.771236 0 7.542472l-45.254834 45.254834q-3.771236 3.771236-7.542472 0l-122.452039-122.452038q-3.771236-3.771236 0-7.542472Z" p-id="5936" fill="#ffffff"></path></svg>